<svg width="450" height="450" viewBox="0 0 450 450" fill="none" xmlns="http://www.w3.org/2000/svg">
<circle cx="225" cy="225" r="220" fill="#F7F3FA" stroke="#37B89C" stroke-width="10"/>
<path d="M261.637 212.535C260.794 215.497 273.413 240.455 278.998 255.388C284.582 270.321 295.295 304.308 295.295 304.308L318.104 300.659C318.104 300.659 313.105 276.078 306.319 252.927C299.534 229.775 291.037 210.979 288.442 208.609C286.087 206.458 280.715 205.996 275.99 206.682C271.265 207.368 262.482 209.566 261.637 212.535V212.535Z" fill="#37B89C" stroke="#212121" stroke-width="2"/>
<path d="M188.859 210.715C190.245 215.486 184.062 261.857 182.144 288.987C180.225 316.117 177.667 377.237 177.667 377.237L156.243 378.173C156.243 378.173 155.603 334.827 156.882 293.352C158.161 251.878 161.906 217.271 163.757 212.43C165.438 208.037 170.206 205.57 174.629 205.258C179.053 204.946 187.469 205.933 188.859 210.715V210.715Z" fill="#37B89C" stroke="#212121" stroke-width="2"/>
<path d="M184.937 191.817L175.598 311.444C175.598 311.444 174.241 363.704 179.667 372.083C183.1 377.382 190.747 383.769 212.001 386.856C233.255 389.943 243.851 388.176 256.77 385.974C259.912 385.439 279.016 379.372 283.076 369.065C287.422 358.033 284.625 312.75 284.625 312.75L276.125 191.931L184.937 191.817Z" fill="#37B89C" stroke="#212121" stroke-width="2"/>
<path d="M318.034 121.415C318.034 121.415 367.246 107.683 367.676 147.601C368.106 187.519 318.226 174.835 318.226 174.835L318.034 121.415Z" fill="#37B89C" stroke="#212121" stroke-width="2"/>
<path d="M331.295 135.586C331.295 135.586 354.217 129.19 354.417 147.783C354.617 166.376 331.385 160.468 331.385 160.468L331.295 135.586Z" fill="#F5D2BA" stroke="#212121" stroke-width="2"/>
<path d="M141.121 122.011C141.121 122.011 91.9082 108.279 91.4786 148.197C91.049 188.115 140.929 175.43 140.929 175.43L141.121 122.011Z" fill="#37B89C" stroke="#212121" stroke-width="2"/>
<path d="M127.86 136.182C127.86 136.182 104.938 129.786 104.738 148.379C104.538 166.972 127.771 161.064 127.771 161.064L127.86 136.182Z" fill="#F5D2BA" stroke="#212121" stroke-width="2"/>
<path opacity="0.997" d="M290.363 99.4718H170.452C154.028 99.4718 140.713 112.456 140.713 128.473V170.082C140.713 186.099 154.028 199.083 170.452 199.083H290.363C306.787 199.083 320.102 186.099 320.102 170.082V128.473C320.102 112.456 306.787 99.4718 290.363 99.4718Z" fill="#37B89C" stroke="#212121" stroke-width="2"/>
<path d="M196.324 116.609C226.057 126.729 236.935 126.276 264.115 115.673C290.955 103.715 306.459 128.514 301.207 148.728C296.091 165.879 290.649 186.201 271.789 183.966C237.574 179.912 238.699 170.868 191.208 184.902C164.439 192.812 161.027 155.399 159.871 150.599C154.372 127.755 166.592 106.488 196.324 116.609Z" fill="#F5D2BA" stroke="#212121" stroke-width="2"/>
<path opacity="0.997" d="M209.623 162.375C212.625 162.375 215.059 156.511 215.059 149.278C215.059 142.044 212.625 136.18 209.623 136.18C206.62 136.18 204.187 142.044 204.187 149.278C204.187 156.511 206.62 162.375 209.623 162.375Z" fill="#2B1100" stroke="#212121" stroke-width="2"/>
<path opacity="0.997" d="M251.192 162.375C254.195 162.375 256.628 156.511 256.628 149.278C256.628 142.044 254.195 136.18 251.192 136.18C248.19 136.18 245.756 142.044 245.756 149.278C245.756 156.511 248.19 162.375 251.192 162.375Z" fill="#2B1100" stroke="#212121" stroke-width="2"/>
<path d="M223.812 155.58C225.451 152.15 234.588 151.977 236.923 155.58C238.691 158.308 233.193 162.113 230.847 162.362C228.673 162.594 222.173 159.01 223.812 155.58Z" fill="#502D16" stroke="#212121" stroke-width="2"/>
<path d="M258.995 173.299L278.892 160.289C278.892 160.289 282.797 170.018 275.84 175.283C268.265 181.016 258.995 173.299 258.995 173.299V173.299Z" fill="#651616" stroke="#212121" stroke-width="2"/>
<path opacity="0.997" d="M255.829 242.117C255.829 228.684 244.662 217.794 230.887 217.794C217.113 217.794 205.946 228.684 205.946 242.117V336.916C205.946 350.35 217.113 361.24 230.887 361.24C244.662 361.24 255.829 350.35 255.829 336.916V242.117Z" fill="#F5D2BA" stroke="#212121" stroke-width="2"/>
<path d="M295.296 304.308C293.891 302.533 301.32 283.502 304.801 272.365C308.283 261.229 315.981 236.015 315.981 236.015L339.803 238.04C339.803 238.04 332.227 259.591 328.839 276.44C325.452 293.289 325.521 297.555 323.135 299.703C320.969 301.651 313.84 308.765 308.652 309.361C303.464 309.957 296.703 306.087 295.296 304.308V304.308Z" fill="#37B89C" stroke="#212121" stroke-width="2"/>
<path d="M307.311 231.272H342.458C342.458 231.272 342.318 255.332 325.625 255.527C306.756 255.748 307.311 231.272 307.311 231.272V231.272Z" fill="#F5D2BA" stroke="#212121" stroke-width="2"/>
<path d="M307.312 232.507C307.312 232.507 304.93 203.716 311.155 203.621C317.303 203.527 316.43 232.507 316.43 232.507H307.312Z" fill="#F5D2BA" stroke="#212121" stroke-width="2"/>
<path d="M316.72 225.805C316.72 225.805 314.304 243.516 320.62 243.575C326.857 243.632 325.323 225.805 325.323 225.805C322.483 223.712 318.865 223.949 316.72 225.805V225.805Z" fill="#F5D2BA" stroke="#212121" stroke-width="2"/>
<path d="M325.323 225.805C325.323 225.805 322.907 243.516 329.223 243.575C335.46 243.632 333.926 225.805 333.926 225.805C331.086 223.712 327.469 223.949 325.323 225.805V225.805Z" fill="#F5D2BA" stroke="#212121" stroke-width="2"/>
<path d="M333.925 225.805C333.925 225.805 331.509 243.516 337.825 243.575C344.063 243.632 342.528 225.805 342.528 225.805C339.688 223.712 336.071 223.949 333.925 225.805V225.805Z" fill="#F5D2BA" stroke="#212121" stroke-width="2"/>
<path opacity="0.997" d="M316.07 230.64H307.971V236.281H316.07V230.64Z" fill="#F5D2BA"/>
<path d="M303.321 238.705C303.321 238.705 318.291 249.007 321.273 243.577C324.218 238.214 307.311 231.272 307.311 231.272C304.093 232.755 302.631 235.991 303.321 238.705Z" fill="#F5D2BA" stroke="#212121" stroke-width="2"/>
<path opacity="0.997" d="M106.808 348.113C126.344 348.113 142.181 336.197 142.181 321.498C142.181 306.799 126.344 294.883 106.808 294.883C87.272 294.883 71.4348 306.799 71.4348 321.498C71.4348 336.197 87.272 348.113 106.808 348.113Z" fill="#96DA85"/>
<path opacity="0.997" d="M187.924 348.113C207.46 348.113 223.297 336.197 223.297 321.498C223.297 306.799 207.46 294.883 187.924 294.883C168.388 294.883 152.551 306.799 152.551 321.498C152.551 336.197 168.388 348.113 187.924 348.113Z" fill="#85B6DA" stroke="white" stroke-width="10"/>
<path opacity="0.997" d="M269.041 348.113C288.578 348.113 304.415 336.197 304.415 321.498C304.415 306.799 288.578 294.883 269.041 294.883C249.505 294.883 233.668 306.799 233.668 321.498C233.668 336.197 249.505 348.113 269.041 348.113Z" fill="#8785DA"/>
<path opacity="0.997" d="M350.158 348.113C369.694 348.113 385.531 336.197 385.531 321.498C385.531 306.799 369.694 294.883 350.158 294.883C330.622 294.883 314.785 306.799 314.785 321.498C314.785 336.197 330.622 348.113 350.158 348.113Z" fill="#DA85D1"/>
<path opacity="0.997" d="M147.366 410C166.902 410 182.739 398.084 182.739 383.385C182.739 368.686 166.902 356.771 147.366 356.771C127.83 356.771 111.993 368.686 111.993 383.385C111.993 398.084 127.83 410 147.366 410Z" fill="#DA7979"/>
<path opacity="0.997" d="M228.483 410C248.019 410 263.856 398.084 263.856 383.385C263.856 368.686 248.019 356.771 228.483 356.771C208.946 356.771 193.109 368.686 193.109 383.385C193.109 398.084 208.946 410 228.483 410Z" fill="#EFA47B"/>
<path opacity="0.997" d="M309.6 410C329.136 410 344.973 398.084 344.973 383.385C344.973 368.686 329.136 356.771 309.6 356.771C290.064 356.771 274.227 368.686 274.227 383.385C274.227 398.084 290.064 410 309.6 410Z" fill="#E4CC77"/>
<path d="M68.1091 192.418C68.1091 192.418 79.295 196.048 88.7124 188.526L87.8299 192.317C87.8299 192.317 82.2013 197.494 71.3967 198.682L68.1091 192.418Z" fill="#212121"/>
<path d="M87.8304 192.318C87.8304 192.318 85.5922 202.484 89.8707 206.034C94.1493 209.584 86.9252 208.953 86.9252 208.953C86.9252 208.953 83.9889 196.268 85.8045 192.765C87.62 189.261 87.8303 192.318 87.8303 192.318L87.8304 192.318Z" fill="#212121"/>
<path opacity="0.997" d="M93.8697 213.888C97.0071 213.182 98.9635 210.129 98.2394 207.069C97.5153 204.01 94.3849 202.103 91.2475 202.809C88.11 203.515 86.1537 206.568 86.8778 209.628C87.6019 212.687 90.7323 214.594 93.8697 213.888Z" fill="#212121"/>
<path d="M385.878 43.9791C385.878 43.9791 380.407 67.0721 356.716 75.1463L364.505 77.7071C364.505 77.7071 379.894 73.6135 393.646 56.3511L385.878 43.9791Z" fill="#212121"/>
<path d="M364.505 77.7071C364.505 77.7071 385.249 84.7924 387.057 95.948C388.864 107.104 395.489 94.0323 395.489 94.0323C395.489 94.0323 375.759 75.3618 367.488 74.7115C359.216 74.0612 364.505 77.7071 364.505 77.7071L364.505 77.7071Z" fill="#212121"/>
<path opacity="0.997" d="M396.93 111.249C392.285 115.873 384.675 115.949 379.933 111.419C375.192 106.888 375.114 99.4671 379.76 94.8431C384.405 90.2192 392.015 90.1434 396.756 94.6738C401.498 99.2043 401.576 106.625 396.93 111.249Z" fill="#212121"/>
<path d="M66.7483 57.4521C65.5284 54.9919 87.6792 59.0263 99.5353 54.6317C101.328 53.9672 98.7321 59.5691 98.7321 59.5691C98.7321 59.5691 87.1246 68.1429 71.5397 66.3923C71.5397 66.3923 67.9682 59.9123 66.7483 57.4521V57.4521Z" fill="#212121"/>
<path d="M98.7325 59.5691C98.7325 59.5691 92.2039 73.1527 97.0372 79.4978C101.871 85.8429 91.925 82.6703 91.925 82.6703C91.925 82.6703 92.018 63.9069 95.7359 59.556C99.4539 55.205 98.7325 59.569 98.7325 59.569V59.5691Z" fill="#212121"/>
<path opacity="0.997" d="M100.045 91.8061C104.69 91.8061 108.456 88.1333 108.456 83.6027C108.456 79.0722 104.69 75.3994 100.045 75.3994C95.3989 75.3994 91.6328 79.0722 91.6328 83.6027C91.6328 88.1333 95.3989 91.8061 100.045 91.8061Z" fill="#212121"/>
<path d="M98.075 59.6012C98.075 59.6012 84.2144 68.2125 68.4717 60.6175L70.9742 65.6692C70.9742 65.6692 74.7477 66.9548 95.3718 68.5185L98.075 59.6012Z" fill="#212121"/>
<path d="M70.9738 65.6693C70.9738 65.6693 77.5024 79.2529 72.6691 85.598C67.8358 91.9431 77.7812 88.7706 77.7812 88.7706C77.7812 88.7706 77.6883 70.0071 73.9704 65.6562C70.2524 61.3053 70.9738 65.6693 70.9738 65.6693V65.6693Z" fill="#212121"/>
<path opacity="0.997" d="M71.5367 94.2488C67.9266 94.2488 64.9999 91.3947 64.9999 87.874C64.9999 84.3533 67.9266 81.4993 71.5367 81.4993C75.1469 81.4993 78.0735 84.3533 78.0735 87.874C78.0735 91.3947 75.1469 94.2488 71.5367 94.2488Z" fill="#212121"/>
<path d="M364.324 180.653C363.491 178.974 378.601 181.727 386.689 178.729C387.912 178.276 386.141 182.097 386.141 182.097C386.141 182.097 378.223 187.945 367.592 186.751C367.592 186.751 365.156 182.331 364.324 180.653V180.653Z" fill="#212121"/>
<path d="M386.14 182.097C386.14 182.097 381.687 191.363 384.984 195.691C388.281 200.02 381.497 197.855 381.497 197.855C381.497 197.855 381.56 185.056 384.096 182.088C386.633 179.12 386.14 182.097 386.14 182.097V182.097Z" fill="#212121"/>
<path opacity="0.997" d="M387.036 204.087C390.205 204.087 392.774 201.582 392.774 198.491C392.774 195.401 390.205 192.895 387.036 192.895C383.867 192.895 381.298 195.401 381.298 198.491C381.298 201.582 383.867 204.087 387.036 204.087Z" fill="#212121"/>
<path d="M385.693 182.119C385.693 182.119 376.238 187.993 365.499 182.812L367.206 186.258C367.206 186.258 369.781 187.135 383.849 188.202L385.693 182.119Z" fill="#212121"/>
<path d="M367.206 186.258C367.206 186.258 371.66 195.524 368.363 199.852C365.066 204.18 371.85 202.016 371.85 202.016C371.85 202.016 371.787 189.217 369.251 186.249C366.714 183.281 367.206 186.258 367.206 186.258V186.258Z" fill="#212121"/>
<path opacity="0.997" d="M367.591 205.753C365.128 205.753 363.131 203.807 363.131 201.405C363.131 199.003 365.128 197.056 367.591 197.056C370.053 197.056 372.05 199.003 372.05 201.405C372.05 203.807 370.053 205.753 367.591 205.753Z" fill="#212121"/>
<path d="M397.108 263.324C397.108 263.324 385.339 263.975 378.265 254.313L378.1 258.198C378.1 258.198 382.146 264.63 392.256 268.531L397.108 263.324Z" fill="#212121"/>
<path d="M378.101 258.199C378.101 258.199 377.536 268.581 372.455 270.917C367.373 273.253 374.515 274.486 374.515 274.486C374.515 274.486 380.75 262.991 379.936 259.146C379.123 255.302 378.101 258.199 378.101 258.199L378.101 258.199Z" fill="#212121"/>
<path opacity="0.997" d="M366.49 277.479C363.651 275.997 362.581 272.552 364.1 269.784C365.619 267.015 369.152 265.972 371.991 267.454C374.83 268.935 375.9 272.381 374.381 275.149C372.862 277.918 369.329 278.961 366.49 277.479Z" fill="#212121"/>
<path d="M128.395 265.101C129.016 263.848 117.737 265.902 111.699 263.664C110.787 263.326 112.108 266.179 112.108 266.179C112.108 266.179 118.019 270.545 125.955 269.653C125.955 269.653 127.774 266.353 128.395 265.101V265.101Z" fill="#212121"/>
<path d="M112.108 266.179C112.108 266.179 115.432 273.096 112.971 276.327C110.51 279.558 115.574 277.942 115.574 277.942C115.574 277.942 115.527 268.388 113.634 266.172C111.74 263.957 112.108 266.179 112.108 266.179V266.179Z" fill="#212121"/>
<path opacity="0.997" d="M111.44 282.594C109.075 282.594 107.157 280.724 107.157 278.417C107.157 276.11 109.075 274.24 111.44 274.24C113.806 274.24 115.724 276.11 115.724 278.417C115.724 280.724 113.806 282.594 111.44 282.594Z" fill="#212121"/>
<path d="M112.443 266.195C112.443 266.195 119.501 270.58 127.518 266.713L126.244 269.285C126.244 269.285 124.322 269.94 113.82 270.736L112.443 266.195Z" fill="#212121"/>
<path d="M126.244 269.285C126.244 269.285 122.919 276.202 125.381 279.433C127.842 282.664 122.777 281.048 122.777 281.048C122.777 281.048 122.825 271.494 124.718 269.278C126.611 267.063 126.244 269.285 126.244 269.285V269.285Z" fill="#212121"/>
<path opacity="0.997" d="M125.957 283.838C127.795 283.838 129.285 282.385 129.285 280.592C129.285 278.799 127.795 277.346 125.957 277.346C124.118 277.346 122.628 278.799 122.628 280.592C122.628 282.385 124.118 283.838 125.957 283.838Z" fill="#212121"/>
<path d="M194.165 40C194.165 40 198.703 50.6108 210.704 52.5988L207.192 54.4393C207.192 54.4393 199.492 53.6984 191.48 46.5306L194.165 40Z" fill="#212121"/>
<path d="M207.192 54.4395C207.192 54.4395 197.86 59.4682 197.924 64.9461C197.987 70.4241 193.732 64.6967 193.732 64.6967C193.732 64.6967 201.614 54.2078 205.516 53.2428C209.418 52.2777 207.192 54.4395 207.192 54.4395L207.192 54.4395Z" fill="#212121"/>
<path opacity="0.997" d="M194.475 73.0443C197.081 74.8883 200.727 74.3229 202.617 71.7814C204.508 69.2399 203.928 65.6848 201.322 63.8408C198.715 61.9968 195.07 62.5622 193.179 65.1037C191.288 67.6452 191.869 71.2004 194.475 73.0443Z" fill="#212121"/>
<path d="M304.435 64.4922C305.581 63.6637 294.612 60.3787 290.328 55.6644C289.681 54.9517 289.495 58.0764 289.495 58.0764C289.495 58.0764 292.653 64.6184 300.108 67.4203C300.108 67.4203 303.289 65.3207 304.435 64.4922V64.4922Z" fill="#212121"/>
<path d="M289.494 58.0763C289.494 58.0763 289.148 65.708 285.43 67.4561C281.712 69.2043 286.968 70.0654 286.968 70.0654C286.968 70.0654 291.472 61.5804 290.849 58.761C290.226 55.9416 289.494 58.0763 289.494 58.0763L289.494 58.0763Z" fill="#212121"/>
<path opacity="0.997" d="M281.092 72.315C278.996 71.2444 278.187 68.7198 279.285 66.6763C280.382 64.6328 282.971 63.8442 285.067 64.9148C287.162 65.9855 287.971 68.51 286.874 70.5535C285.776 72.597 283.187 73.3857 281.092 72.315Z" fill="#212121"/>
<path d="M289.782 58.2424C289.782 58.2424 293.949 65.3205 302.89 65.5228L300.537 67.2245C300.537 67.2245 298.524 66.9348 288.841 62.8873L289.782 58.2424Z" fill="#212121"/>
<path d="M300.537 67.2246C300.537 67.2246 294.301 71.847 294.944 75.823C295.587 79.799 291.869 76.0759 291.869 76.0759C291.869 76.0759 296.457 67.6338 299.188 66.5281C301.92 65.4224 300.537 67.2246 300.537 67.2246L300.537 67.2246Z" fill="#212121"/>
<path opacity="0.997" d="M293.359 79.986C294.987 80.818 296.999 80.2051 297.852 78.6171C298.705 77.0291 298.076 75.0673 296.448 74.2353C294.819 73.4033 292.807 74.0162 291.954 75.6042C291.101 77.1922 291.73 79.154 293.359 79.986Z" fill="#212121"/>
</svg>
