<svg width="620" height="797" viewBox="0 0 620 797" fill="none" xmlns="http://www.w3.org/2000/svg">
<path d="M319.862 389.332C325.025 392.881 335.824 447.528 345.545 477.759C355.266 507.99 380.7 574.289 380.7 574.289L338.25 597.22C338.25 597.22 315.297 552.717 297.122 508.197C278.948 463.676 269.145 423.785 270.435 416.844C271.605 410.545 279.923 403.088 288.628 398.23C297.333 393.371 314.687 385.774 319.862 389.332V389.332Z" fill="#37B89C" stroke="#212121" stroke-width="2"/>
<path d="M438.657 295.534C442.413 304.699 511.532 369.14 549.154 408.971C586.776 448.802 668.606 540.748 668.606 540.748L705.327 515.354C705.327 515.354 651.363 447.073 596.593 384.108C541.823 321.144 491.682 271.96 482.466 266.745C474.102 262.013 463.062 264.147 455.329 269.205C447.597 274.263 434.891 286.348 438.657 295.534V295.534Z" fill="#37B89C" stroke="#212121" stroke-width="2"/>
<path d="M420.83 261.158L588.346 435.52C588.346 435.52 657.011 515.106 658.663 534.945C659.709 547.492 655.148 567.018 623.836 598.476C592.524 629.934 572.712 640.474 548.496 653.252C542.608 656.36 503.226 670.883 483.396 659.942C462.171 648.233 409.258 574.289 409.258 574.289L269.804 375.7L420.83 261.158Z" fill="#37B89C" stroke="#212121" stroke-width="2"/>
<path d="M110.58 317.996C110.58 317.996 11.5151 358.368 61.5648 420.961C111.614 483.554 178.193 401.28 178.193 401.28L110.58 317.996Z" fill="#37B89C" stroke="#212121" stroke-width="2"/>
<path d="M106.612 356.657C106.612 356.657 60.4699 375.462 83.7818 404.616C107.094 433.77 138.104 395.449 138.104 395.449L106.612 356.657Z" fill="#F5D2BA" stroke="#212121" stroke-width="2"/>
<path d="M405.417 97.7586C405.417 97.7586 469.558 14.6931 521.032 76.2083C572.507 137.723 473.667 180.56 473.667 180.56L405.417 97.7586Z" fill="#37B89C" stroke="#212121" stroke-width="2"/>
<path d="M445.427 103.158C445.427 103.158 475.302 64.4681 499.277 93.1202C523.253 121.773 477.216 141.725 477.216 141.725L445.427 103.158Z" fill="#F5D2BA" stroke="#212121" stroke-width="2"/>
<path opacity="0.997" d="M128.796 249.481L327.756 99.2576C355.007 78.6821 393.624 82.1803 414.01 107.071L466.971 171.734C487.357 196.625 481.792 233.482 454.541 254.058L255.582 404.281C228.331 424.857 189.713 421.358 169.327 396.468L116.367 331.805C95.9804 306.914 101.545 270.056 128.796 249.481Z" fill="#37B89C" stroke="#212121" stroke-width="2"/>
<path d="M306.645 158.307C270.189 211.278 251.561 224.2 192.964 241.771C133.206 256.808 139.043 314.768 173.486 339.603C203.806 359.847 238.702 384.61 267.153 357.512C318.769 308.353 305.39 295.707 402.058 258.026C456.548 236.786 414.59 174.373 410.398 165.466C390.445 123.076 343.1 105.336 306.645 158.307Z" fill="#F5D2BA" stroke="#212121" stroke-width="2"/>
<path opacity="0.997" d="M333.347 237.018C328.372 240.782 316.888 234.709 307.697 223.453C298.506 212.197 295.089 200.021 300.064 196.257C305.039 192.493 316.523 198.567 325.714 209.823C334.905 221.078 338.323 233.254 333.347 237.018Z" fill="#2B1100" stroke="#212121" stroke-width="2"/>
<path opacity="0.997" d="M264.284 289.023C259.309 292.787 247.825 286.713 238.634 275.457C229.443 264.202 226.026 252.026 231.001 248.262C235.976 244.498 247.46 250.571 256.651 261.827C265.842 273.083 269.259 285.259 264.284 289.023Z" fill="#2B1100" stroke="#212121" stroke-width="2"/>
<path d="M301.102 244.196C294.018 240.919 278.642 252.1 279.354 260.625C279.894 267.081 293.856 266.104 298.064 263.553C301.966 261.187 308.186 247.474 301.102 244.196Z" fill="#502D16" stroke="#212121" stroke-width="2"/>
<path opacity="0.997" d="M367.266 428.265C350.204 407.36 354.885 376.41 377.723 359.137C400.56 341.864 432.904 344.809 449.966 365.714L570.371 513.24C587.432 534.145 582.751 565.095 559.914 582.368C537.077 599.641 504.732 596.697 487.67 575.791L367.266 428.265Z" fill="#F5D2BA" stroke="#212121" stroke-width="2"/>
<path d="M380.569 574.231C380.641 569.709 344.137 549.426 324.21 536.472C304.284 523.518 259.474 493.958 259.474 493.958L222.553 526.984C222.553 526.984 262.505 551 289.537 572.957C316.569 594.913 321.877 601.637 328.563 601.983C334.63 602.298 355.49 604.422 364.849 598.842C374.207 593.261 380.498 578.764 380.569 574.231V574.231Z" fill="#37B89C" stroke="#212121" stroke-width="2"/>
<path d="M267.863 475.66L209.55 519.716C209.55 519.716 240.392 556.921 268.336 536.3C299.922 512.991 267.863 475.66 267.863 475.66V475.66Z" fill="#F5D2BA" stroke="#212121" stroke-width="2"/>
<path d="M269.511 477.555C269.511 477.555 236.895 429.764 226.453 437.424C216.141 444.988 254.392 488.991 254.392 488.991L269.511 477.555Z" fill="#F5D2BA" stroke="#212121" stroke-width="2"/>
<path d="M245.346 478.916C245.346 478.916 271.856 503.437 261.458 511.451C251.191 519.365 231.084 489.707 231.084 489.707C233.133 482.89 239.432 478.721 245.346 478.916V478.916Z" fill="#F5D2BA" stroke="#212121" stroke-width="2"/>
<path d="M231.053 489.678C231.053 489.678 257.562 514.2 247.165 522.214C236.897 530.127 216.79 500.47 216.79 500.47C218.84 493.653 225.138 489.484 231.053 489.678V489.678Z" fill="#F5D2BA" stroke="#212121" stroke-width="2"/>
<path d="M216.761 500.44C216.761 500.44 243.27 524.961 232.873 532.975C222.606 540.889 202.498 511.231 202.498 511.231C204.548 504.414 210.846 500.245 216.761 500.44V500.44Z" fill="#F5D2BA" stroke="#212121" stroke-width="2"/>
<path opacity="0.997" d="M252.59 485.654L266.027 475.502L273.202 484.265L259.765 494.417L252.59 485.654Z" fill="#F5D2BA"/>
<path d="M283.983 482.218C283.983 482.218 272.254 516.991 260.399 512.292C248.692 507.653 267.909 475.67 267.909 475.67C275.134 473.941 281.676 477.135 283.983 482.218Z" fill="#F5D2BA" stroke="#212121" stroke-width="2"/>
</svg>
