<svg width="450" height="450" viewBox="0 0 450 450" fill="none" xmlns="http://www.w3.org/2000/svg">
<circle cx="225" cy="225" r="220" fill="#F7F3FA" stroke="#B164E8" stroke-width="10"/>
<path d="M195.765 238.135C196.84 241.55 180.755 270.328 173.638 287.547C166.52 304.765 152.866 343.953 152.866 343.953L123.794 339.746C123.794 339.746 130.166 311.403 138.815 284.709C147.463 258.014 158.293 236.341 161.6 233.609C164.601 231.128 171.449 230.595 177.471 231.386C183.493 232.178 194.688 234.711 195.765 238.135Z" fill="#EF6EE3" stroke="black" stroke-width="2"/>
<path d="M152.866 343.953C154.655 341.906 145.188 319.962 140.75 307.122C136.313 294.281 126.501 265.209 126.501 265.209L96.1378 267.543C96.1378 267.543 105.794 292.392 110.112 311.82C114.43 331.247 114.341 336.167 117.383 338.643C120.144 340.89 129.229 349.093 135.842 349.78C142.454 350.466 151.072 346.005 152.866 343.953Z" fill="#EF6EE3" stroke="black" stroke-width="2"/>
<path d="M275.585 234.387C274.51 237.802 290.594 266.58 297.712 283.798C304.83 301.017 318.484 340.205 318.484 340.205L347.556 335.998C347.556 335.998 341.184 307.655 332.535 280.96C323.886 254.266 313.057 232.593 309.749 229.86C306.748 227.38 299.901 226.846 293.879 227.638C287.857 228.429 276.662 230.963 275.585 234.387Z" fill="#EF6EE3" stroke="black" stroke-width="2"/>
<path d="M177.824 199.107L165.92 337.043C165.92 337.043 164.191 397.3 171.108 406.962C175.482 413.072 185.229 420.437 212.319 423.997C239.409 427.556 252.914 425.518 269.38 422.98C273.384 422.363 297.734 415.367 302.909 403.482C308.448 390.762 304.883 338.548 304.883 338.548L294.049 199.239L177.824 199.107Z" fill="#EF6EE3" stroke="black" stroke-width="2"/>
<path d="M186.411 139.13C186.411 139.13 188.379 131.912 199.419 129.979" stroke="black" stroke-width="2"/>
<path d="M326.264 99.6738C326.264 99.6738 382.907 71.0523 395.898 115.615C408.889 160.178 343.175 159.412 343.175 159.412L326.264 99.6738Z" fill="#F06EE3" stroke="black" stroke-width="2"/>
<path d="M347.105 111.964C347.105 111.964 373.488 98.6329 379.539 119.389C385.589 140.145 354.981 139.789 354.981 139.789L347.105 111.964Z" fill="#63432D" stroke="black" stroke-width="2"/>
<path d="M107.529 147.889C107.529 147.889 42.3142 145.772 54.2402 190.566C66.1662 235.36 123.963 207.732 123.963 207.732L107.529 147.889Z" fill="#F06EE3" stroke="black" stroke-width="2"/>
<path d="M95.5335 167.322C95.5335 167.322 65.158 166.336 70.7129 187.2C76.268 208.064 103.188 195.195 103.188 195.195L95.5335 167.322Z" fill="#63432D" stroke="black" stroke-width="2"/>
<path opacity="0.997" d="M285.189 82.5339L136.766 114.802C116.437 119.222 104.011 137.336 109.011 155.263L122.002 201.832C127.003 219.758 147.536 230.707 167.865 226.288L316.288 194.02C336.617 189.6 349.043 171.485 344.043 153.559L331.052 106.99C326.052 89.0635 305.518 78.1143 285.189 82.5339Z" fill="#F06EE3" stroke="black" stroke-width="2"/>
<path d="M174.141 127.02C214.102 130.346 227.425 126.911 257.757 107.731C287.245 87.125 314.178 110.708 313.988 134.745C313.01 155.317 312.618 179.524 288.577 182.098C244.962 186.768 243.531 176.343 189.13 204.829C158.465 220.886 142.562 179.932 139.633 174.871C125.695 150.783 134.181 123.694 174.141 127.02Z" fill="#63432D" stroke="black" stroke-width="2"/>
<path opacity="0.997" d="M204.893 174.661C208.611 173.852 209.794 166.633 207.536 158.536C205.278 150.438 200.433 144.53 196.715 145.338C192.997 146.147 191.814 153.366 194.072 161.464C196.33 169.561 201.175 175.469 204.893 174.661Z" fill="#160900" stroke="black" stroke-width="2"/>
<path opacity="0.997" d="M256.339 163.484C260.057 162.675 261.24 155.456 258.982 147.359C256.724 139.261 251.879 133.353 248.161 134.161C244.443 134.97 243.26 142.189 245.518 150.286C247.776 158.384 252.621 164.292 256.339 163.484Z" fill="#160900" stroke="black" stroke-width="2"/>
<path d="M220.333 163.243C221.29 158.962 232.546 156.31 236.561 159.714C239.601 162.293 233.984 168.03 231.158 168.941C228.539 169.785 219.375 167.523 220.333 163.243Z" fill="#502D16" stroke="black" stroke-width="2"/>
<path d="M178.563 141.05C178.563 141.05 180.531 133.831 191.571 131.898" stroke="black" stroke-width="2"/>
<path d="M240.939 133.234C240.939 133.234 247.009 128.09 257.485 131.71" stroke="black" stroke-width="2"/>
<path d="M270.189 175.577C270.189 175.577 272.805 165.388 287.48 162.659" stroke="black" stroke-width="2"/>
<path opacity="0.997" d="M268.181 257.106C268.181 241.616 253.948 229.06 236.391 229.06C218.834 229.06 204.602 241.616 204.602 257.106V366.413C204.602 381.903 218.834 394.459 236.391 394.459C253.948 394.459 268.181 381.903 268.181 366.413V257.106Z" fill="#63432D" stroke="black" stroke-width="2"/>
<path d="M318.483 340.205C316.694 338.158 326.162 316.214 330.599 303.374C335.036 290.533 344.849 261.461 344.849 261.461L375.212 263.795C375.212 263.795 365.555 288.644 361.237 308.072C356.919 327.499 357.008 332.419 353.966 334.895C351.206 337.142 342.12 345.345 335.507 346.031C328.895 346.718 320.277 342.257 318.483 340.205Z" fill="#EF6EE3" stroke="black" stroke-width="2"/>
<path d="M330.784 243.148V230.618C335.267 232.339 342.292 230.404 342.159 224.539C342.159 219.194 336.002 216.422 330.784 217.846V206.402H344.146C340.107 200.231 344.518 195.811 351.064 195.811C358.968 195.811 361.121 200.737 357.414 206.402H372.481V218.2C378.351 216.721 382.72 217.794 383.605 224.796C382.788 231.574 378.273 232.292 372.481 230.918V243.189L330.784 243.148Z" fill="#098FC8" stroke="black" stroke-width="2"/>
<path d="M110.438 203.922L123.962 207.751C120.735 210.99 120.677 217.483 127.048 219.163C132.817 220.796 137.689 216.47 137.746 211.652L150.098 215.149L146.015 226.373C153.91 224.866 158.354 230.211 156.354 235.71C153.94 242.349 146.944 242.364 141.962 237.519L137.359 250.176L97.6553 238.938L102.182 226.525C95.2086 228.626 89.0894 223.861 91.4776 217.872C93.6862 211.935 100.538 210.107 106.157 215.661L110.438 203.922Z" fill="#00FFFF" stroke="black" stroke-width="2"/>
<path d="M126.388 256.896L128.177 248.317L119.642 246.717L118.211 252.451L126.388 256.896Z" fill="#63432D" stroke="black" stroke-width="2"/>
<path d="M104.629 274.764L117.783 271.37C120.818 269.106 119.301 265.272 119.301 265.272C122.77 263.826 121.758 260.557 121.758 260.557C124.938 260.054 124.649 253.767 124.649 253.767L112.507 244.966C112.507 244.966 119.734 250.247 128.407 249.744C137.08 249.241 133.032 244.715 133.032 244.715C133.032 244.715 122.047 239.183 117.422 237.925C112.796 236.668 110.194 237.171 110.194 237.171L95.7397 243.709C95.7397 243.709 88.5124 251.756 93.1379 269.358C97.7634 286.96 114.531 283.943 114.531 283.943C114.531 283.943 120.891 283.314 122.119 268.289C122.119 268.289 138.886 260.431 112.507 244.966" fill="#63432D"/>
<path d="M104.629 274.764L117.783 271.37C120.818 269.106 119.301 265.272 119.301 265.272C122.77 263.826 121.758 260.557 121.758 260.557C124.938 260.054 124.649 253.767 124.649 253.767L112.507 244.966C112.507 244.966 119.734 250.247 128.407 249.744C137.08 249.241 133.032 244.715 133.032 244.715C133.032 244.715 122.047 239.183 117.422 237.925C112.796 236.668 110.194 237.171 110.194 237.171L95.7397 243.709C95.7397 243.709 88.5124 251.756 93.1379 269.358C97.7634 286.96 114.531 283.943 114.531 283.943C114.531 283.943 120.891 283.314 122.119 268.289C122.119 268.289 138.886 260.431 112.507 244.966" stroke="black" stroke-width="2"/>
<path d="M119.301 265.272C119.301 265.272 117.277 263.448 116.337 263.511C115.398 263.574 103.906 265.209 103.906 265.209" stroke="black" stroke-width="2"/>
<path d="M121.757 260.557L116.698 255.339C116.698 255.339 115.759 254.396 113.88 254.647C112.001 254.899 103.545 256.282 103.545 256.282" stroke="black" stroke-width="2"/>
<path d="M112.507 244.966C109.979 243.683 107.55 245.699 104.571 246.616" stroke="black" stroke-width="2"/>
<path d="M341.832 257.8L340.043 249.221L348.578 247.621L350.009 253.355L341.832 257.8Z" fill="#63432D" stroke="black" stroke-width="2"/>
<path d="M363.591 275.668L350.437 272.273C347.402 270.01 348.92 266.175 348.92 266.175C345.451 264.73 346.462 261.461 346.462 261.461C343.282 260.958 343.571 254.671 343.571 254.671L355.713 245.87C355.713 245.87 348.486 251.151 339.813 250.648C331.141 250.145 335.188 245.618 335.188 245.618C335.188 245.618 346.173 240.086 350.799 238.829C355.424 237.572 358.026 238.075 358.026 238.075L372.481 244.613C372.481 244.613 379.708 252.659 375.082 270.262C370.457 287.864 353.69 284.846 353.69 284.846C353.69 284.846 347.33 284.218 346.101 269.193C346.101 269.193 329.334 261.335 355.713 245.87" fill="#63432D"/>
<path d="M363.591 275.668L350.437 272.273C347.402 270.01 348.92 266.175 348.92 266.175C345.451 264.73 346.462 261.461 346.462 261.461C343.282 260.958 343.571 254.671 343.571 254.671L355.713 245.87C355.713 245.87 348.486 251.151 339.813 250.648C331.141 250.145 335.188 245.618 335.188 245.618C335.188 245.618 346.173 240.086 350.799 238.829C355.424 237.572 358.026 238.075 358.026 238.075L372.481 244.613C372.481 244.613 379.708 252.659 375.082 270.262C370.457 287.864 353.69 284.846 353.69 284.846C353.69 284.846 347.33 284.218 346.101 269.193C346.101 269.193 329.334 261.335 355.713 245.87" stroke="black" stroke-width="2"/>
<path d="M348.92 266.175C348.92 266.175 350.943 264.352 351.883 264.415C352.822 264.478 364.314 266.113 364.314 266.113" stroke="black" stroke-width="2"/>
<path d="M346.463 261.46L351.522 256.243C351.522 256.243 352.461 255.3 354.341 255.551C356.22 255.803 364.676 257.186 364.676 257.186" stroke="black" stroke-width="2"/>
<path d="M355.713 245.87C358.242 244.587 360.67 246.603 363.65 247.519" stroke="black" stroke-width="2"/>
<path d="M207.63 37.1451C204.717 36.7998 202.06 34.8794 205.222 31.1651C209.041 26.6794 219.851 19.4722 231.665 27.8869C245.758 37.9236 223.754 57.8617 223.194 59.8593C222.34 62.9083 223.035 67.3592 221.712 69.2183C220.471 70.9615 215.705 70.7731 214.915 68.9047C213.608 65.8152 215.164 59.5026 215.164 59.5026C215.164 59.5026 215.613 57.2934 218.073 55.0468C220.533 52.8002 227.098 44.601 228.309 41.6514C229.567 38.5856 229.888 32.6791 223.015 30.7459C215.44 28.6153 210.49 37.4843 207.629 37.1451L207.63 37.1451Z" fill="#1A1A1A" stroke="#1A1A1A"/>
<path opacity="0.997" d="M218.735 80.5966C221.033 80.5966 222.895 78.9533 222.895 76.9263C222.895 74.8992 221.033 73.2559 218.735 73.2559C216.437 73.2559 214.575 74.8992 214.575 76.9263C214.575 78.9533 216.437 80.5966 218.735 80.5966Z" fill="#1A1A1A" stroke="#1A1A1A"/>
<path d="M376.667 174.132C375.543 174.511 374.162 174.281 374.473 172.4C374.85 170.129 377.135 165.672 383.249 166.652C390.543 167.82 387.062 178.785 387.304 179.599C387.674 180.842 388.912 182.32 388.85 183.216C388.791 184.057 387.036 184.813 386.337 184.279C385.181 183.395 384.339 180.859 384.339 180.859C384.339 180.859 384.01 179.988 384.395 178.756C384.78 177.524 385.319 173.444 385.099 172.176C384.871 170.857 383.674 168.68 380.775 169.174C377.58 169.718 377.77 173.759 376.666 174.132L376.667 174.132Z" fill="#1A1A1A" stroke="#1A1A1A"/>
<path opacity="0.997" d="M390.304 187.823C391.13 187.425 391.434 186.513 390.984 185.785C390.534 185.057 389.5 184.789 388.675 185.186C387.849 185.584 387.545 186.496 387.994 187.224C388.444 187.952 389.478 188.22 390.304 187.823Z" fill="#1A1A1A" stroke="#1A1A1A"/>
<path d="M128.06 373.764C126.868 373.623 125.781 372.837 127.075 371.318C128.638 369.482 133.061 366.533 137.895 369.976C143.662 374.083 134.658 382.241 134.429 383.059C134.08 384.307 134.364 386.128 133.822 386.889C133.315 387.602 131.365 387.525 131.041 386.76C130.506 385.496 131.143 382.913 131.143 382.913C131.143 382.913 131.327 382.009 132.334 381.09C133.34 380.17 136.026 376.815 136.522 375.608C137.037 374.354 137.168 371.937 134.356 371.146C131.256 370.274 129.231 373.903 128.06 373.764L128.06 373.764Z" fill="#1A1A1A" stroke="#1A1A1A"/>
<path opacity="0.997" d="M132.604 391.544C133.544 391.544 134.306 390.872 134.306 390.043C134.306 389.213 133.544 388.541 132.604 388.541C131.664 388.541 130.901 389.213 130.901 390.043C130.901 390.872 131.664 391.544 132.604 391.544Z" fill="#1A1A1A" stroke="#1A1A1A"/>
<path d="M342.741 370.276C341.697 369.749 341.026 368.659 342.875 367.683C345.107 366.504 350.466 365.247 353.473 370.046C357.058 375.769 345.227 380.323 344.666 381.003C343.809 382.042 343.293 383.823 342.466 384.347C341.691 384.838 339.917 384.117 339.944 383.301C339.989 381.953 341.684 379.773 341.684 379.773C341.684 379.773 342.241 378.998 343.567 378.482C344.892 377.966 348.816 375.755 349.791 374.803C350.805 373.813 351.96 371.619 349.693 369.949C347.194 368.11 343.766 370.795 342.741 370.276L342.741 370.276Z" fill="#1A1A1A" stroke="#1A1A1A"/>
<path opacity="0.997" d="M339.345 388.255C340.216 388.568 341.21 388.2 341.564 387.432C341.919 386.664 341.5 385.787 340.629 385.474C339.759 385.161 338.765 385.529 338.411 386.297C338.056 387.065 338.474 387.942 339.345 388.255Z" fill="#1A1A1A" stroke="#1A1A1A"/>
<path d="M79.5742 115.768C78.5305 115.24 77.8593 114.151 79.7081 113.175C81.941 111.996 87.3 110.739 90.3061 115.537C93.8916 121.261 82.061 125.814 81.4993 126.495C80.6421 127.534 80.1264 129.315 79.2995 129.838C78.5241 130.33 76.7505 129.609 76.7778 128.793C76.8229 127.444 78.5176 125.265 78.5176 125.265C78.5176 125.265 79.0746 124.489 80.4002 123.974C81.7259 123.458 85.6495 121.247 86.6247 120.294C87.6383 119.304 88.7935 117.111 86.5264 115.441C84.0278 113.601 80.5993 116.287 79.5741 115.768L79.5742 115.768Z" fill="#1A1A1A" stroke="#1A1A1A"/>
<path opacity="0.997" d="M76.1787 133.747C77.0496 134.06 78.0431 133.692 78.3977 132.924C78.7523 132.156 78.3338 131.279 77.4629 130.966C76.5921 130.653 75.5986 131.021 75.244 131.789C74.8894 132.557 75.3079 133.434 76.1787 133.747Z" fill="#1A1A1A" stroke="#1A1A1A"/>
</svg>
