<svg width="1436" height="288" viewBox="0 0 1436 288" fill="none" xmlns="http://www.w3.org/2000/svg">
<path fill-rule="evenodd" clip-rule="evenodd" d="M-4 123.429L30.8 109.714C64.4 96 132.8 68.5714 201.2 68.5714C270.8 68.5714 339.2 96 407.6 82.2857C476 68.5714 544.4 13.7143 612.8 6.85714C681.2 0 750.8 41.1429 819.2 75.4286C887.6 109.714 956 137.143 1024.4 144C1092.8 150.857 1161.2 137.143 1230.8 109.714C1299.2 82.2857 1367.6 41.1429 1401.2 20.5714L1436 0V288H1401.2C1367.6 288 1299.2 288 1230.8 288C1161.2 288 1092.8 288 1024.4 288C956 288 887.6 288 819.2 288C750.8 288 681.2 288 612.8 288C544.4 288 476 288 407.6 288C339.2 288 270.8 288 201.2 288C132.8 288 64.4 288 30.8 288H-4V123.429Z" fill="#F7F3FA"/>
</svg>
